<?xml version="1.0" encoding="UTF-8"?>
<svg id="Layer_1" xmlns="http://www.w3.org/2000/svg" version="1.1" viewBox="0 0 148.27 34">
  <!-- Generator: Adobe Illustrator 29.5.1, SVG Export Plug-In . SVG Version: 2.1.0 Build 141)  -->
  <defs>
    <style>
      .st0 {
        fill: #fff;
      }
    </style>
  </defs>
  <g id="_Слой_1">
    <path id="path1" class="st0" d="M25.97,26.91h-8.17l-3.05-3.05h9.95l5.51-5.51v4.31s-4.24,4.24-4.24,4.24ZM24.43,23.21h-4.31l7.04-7.04v-7.78l3.05,3.05v6l-5.77,5.77h0ZM22.27,30.6h-6l-5.77-5.77v-4.31l7.03,7.04h7.79l-3.05,3.05h0ZM11.04,30.6l-4.24-4.24v-8.17l3.05-3.05v9.95l5.51,5.51h-4.31ZM23.47,18.95v-9.95l-5.51-5.51h4.31l4.24,4.24v8.17s-3.05,3.05-3.05,3.05ZM15.78,6.54h-7.78l3.05-3.05h6l5.78,5.77v4.31l-7.04-7.04ZM8.6,10.24l-5.51,5.51v-4.31l4.24-4.24h8.17l3.05,3.05s-9.95,0-9.95,0ZM6.15,17.93v7.79l-3.05-3.05v-6l5.78-5.77h4.31l-7.04,7.04Z"/>
  </g>
  <g>
    <path class="st0" d="M43.55,27.56c-1.05,0-1.95-.14-2.69-.43-.75-.29-1.34-.67-1.78-1.16s-.73-1.04-.86-1.66l2.99-.4c.09.23.24.45.43.65s.46.37.79.49c.33.12.73.19,1.2.19.7,0,1.28-.17,1.74-.51.46-.34.69-.91.69-1.71v-2.13h-.14c-.14.32-.35.63-.64.92-.28.29-.65.52-1.09.71-.44.18-.98.27-1.59.27-.88,0-1.67-.2-2.39-.61-.72-.41-1.29-1.03-1.71-1.87-.42-.84-.63-1.91-.63-3.2s.21-2.43.64-3.31c.43-.89,1-1.55,1.72-1.99.72-.44,1.5-.66,2.36-.66.65,0,1.2.11,1.64.33s.8.49,1.07.82c.27.33.48.65.63.96h.12v-1.96h3.21v11.78c0,.99-.24,1.82-.73,2.49-.49.67-1.16,1.17-2.02,1.51-.86.34-1.84.5-2.96.5ZM43.62,20.35c.52,0,.96-.13,1.32-.39.36-.26.64-.64.84-1.12.19-.49.29-1.07.29-1.76s-.1-1.28-.29-1.78c-.19-.5-.47-.9-.84-1.17-.36-.28-.81-.42-1.33-.42s-.98.14-1.34.43c-.36.29-.64.68-.83,1.19-.19.51-.28,1.09-.28,1.75s.09,1.25.28,1.74.47.87.83,1.13c.36.27.81.4,1.34.4Z"/>
    <path class="st0" d="M51.84,27.32V11.28h3.19v1.96h.14c.14-.31.35-.63.62-.96.27-.33.63-.6,1.06-.82.44-.22.98-.33,1.64-.33.85,0,1.64.22,2.35.66s1.29,1.11,1.72,2,.65,2,.65,3.34-.21,2.4-.63,3.29c-.42.89-.99,1.57-1.7,2.03-.72.46-1.52.69-2.4.69-.63,0-1.16-.1-1.6-.31-.44-.21-.8-.47-1.07-.79-.28-.32-.49-.64-.64-.96h-.1v6.24h-3.23ZM55,17.11c0,.69.1,1.3.29,1.81.19.52.47.92.84,1.2s.81.43,1.33.43.97-.14,1.34-.44c.36-.29.64-.7.83-1.21.19-.52.28-1.12.28-1.8s-.09-1.27-.28-1.78-.46-.91-.83-1.2-.81-.43-1.34-.43-.97.14-1.33.42c-.36.28-.64.67-.83,1.18s-.29,1.11-.29,1.81Z"/>
    <path class="st0" d="M71.56,11.28v2.43h-7.02v-2.43h7.02ZM66.13,8.49h3.23v10.87c0,.3.05.53.14.69.09.17.22.28.38.35s.36.1.57.1c.15,0,.3-.01.45-.04.15-.03.27-.05.35-.06l.51,2.41c-.16.05-.39.11-.68.18-.29.07-.65.11-1.07.13-.78.03-1.46-.07-2.05-.31s-1.04-.61-1.36-1.11c-.32-.5-.48-1.13-.48-1.9v-11.3Z"/>
    <path class="st0" d="M73.73,22.94V7.39h6.23c1.14,0,2.1.17,2.86.51.76.34,1.34.81,1.72,1.41.38.6.58,1.29.58,2.07,0,.61-.12,1.14-.37,1.6-.24.46-.58.83-1,1.12s-.9.5-1.45.62v.15c.59.02,1.15.19,1.67.5.52.31.94.74,1.26,1.3.32.55.49,1.21.49,1.98,0,.83-.2,1.56-.61,2.21-.41.65-1.01,1.16-1.8,1.53-.79.38-1.77.56-2.94.56h-6.64ZM77.01,13.9h2.44c.45,0,.85-.08,1.2-.24.35-.16.63-.39.83-.68.21-.29.31-.65.31-1.06,0-.56-.2-1.01-.6-1.36s-.96-.52-1.69-.52h-2.5v3.85ZM77.01,20.26h2.68c.92,0,1.58-.18,2-.53s.63-.82.63-1.41c0-.43-.1-.81-.31-1.14-.21-.33-.5-.59-.88-.78-.38-.19-.84-.28-1.36-.28h-2.76v4.13Z"/>
    <path class="st0" d="M95.27,17.98v-6.7h3.23v11.66h-3.11v-2.12h-.12c-.26.68-.7,1.23-1.31,1.65-.61.42-1.35.62-2.23.62-.78,0-1.47-.18-2.06-.53-.59-.35-1.05-.86-1.39-1.51-.33-.65-.5-1.43-.5-2.35v-7.43h3.23v6.85c0,.69.19,1.23.55,1.63s.85.6,1.47.6c.39,0,.75-.09,1.09-.27.34-.18.61-.45.82-.8.21-.35.31-.79.31-1.31Z"/>
    <path class="st0" d="M110.79,14.61l-2.96.18c-.05-.25-.16-.48-.33-.69-.17-.2-.39-.37-.66-.49s-.59-.19-.97-.19c-.5,0-.92.11-1.27.32-.34.21-.52.49-.52.84,0,.28.11.51.33.71.22.19.61.35,1.15.46l2.11.43c1.13.23,1.98.61,2.54,1.12.56.52.83,1.2.83,2.04,0,.76-.22,1.43-.67,2.01s-1.06,1.03-1.84,1.35c-.78.32-1.67.48-2.68.48-1.54,0-2.77-.32-3.69-.97-.91-.65-1.45-1.52-1.61-2.64l3.18-.17c.1.47.33.83.7,1.07.37.25.84.37,1.42.37s1.02-.11,1.37-.33c.35-.22.52-.51.53-.85,0-.29-.13-.54-.37-.72s-.62-.34-1.12-.44l-2.02-.4c-1.14-.23-1.98-.62-2.54-1.18-.55-.56-.83-1.28-.83-2.15,0-.75.2-1.39.61-1.94.41-.54.98-.96,1.72-1.25.74-.29,1.61-.44,2.61-.44,1.47,0,2.63.31,3.48.93.85.62,1.34,1.47,1.48,2.54Z"/>
    <path class="st0" d="M119.31,11.28v2.43h-7.02v-2.43h7.02ZM113.88,8.49h3.23v10.87c0,.3.05.53.14.69.09.17.22.28.38.35.16.07.36.1.57.1.15,0,.3-.01.45-.04s.27-.05.35-.06l.51,2.41c-.16.05-.39.11-.68.18-.29.07-.65.11-1.07.13-.78.03-1.46-.07-2.05-.31s-1.04-.61-1.36-1.11c-.32-.5-.48-1.13-.48-1.9v-11.3Z"/>
    <path class="st0" d="M126.72,23.17c-1.2,0-2.23-.24-3.09-.73s-1.53-1.18-1.99-2.08c-.47-.9-.7-1.96-.7-3.19s.23-2.25.7-3.16c.47-.91,1.12-1.61,1.97-2.12.85-.51,1.84-.76,2.99-.76.77,0,1.49.12,2.15.37s1.25.61,1.75,1.1c.5.49.89,1.11,1.17,1.85.28.74.42,1.61.42,2.6v.89h-9.85v-2h6.8c0-.47-.1-.88-.3-1.24-.2-.36-.48-.64-.84-.85-.36-.21-.77-.31-1.24-.31s-.93.11-1.3.34-.67.53-.88.9c-.21.38-.32.8-.33,1.26v1.91c0,.58.11,1.08.32,1.5.22.42.52.74.92.97s.86.34,1.41.34c.36,0,.69-.05.99-.15.3-.1.55-.25.77-.45.21-.2.37-.45.49-.74l2.99.2c-.15.72-.46,1.34-.93,1.88s-1.07.95-1.81,1.25c-.74.3-1.58.44-2.55.44Z"/>
    <path class="st0" d="M134.19,22.94v-11.66h3.13v2.04h.12c.21-.72.57-1.27,1.07-1.64.5-.37,1.08-.56,1.73-.56.16,0,.34.01.52.03s.35.05.49.08v2.87c-.15-.04-.36-.09-.63-.12-.27-.03-.51-.05-.74-.05-.48,0-.9.1-1.27.31-.37.21-.67.49-.88.85-.21.37-.32.79-.32,1.26v6.6h-3.23Z"/>
  </g>
</svg>